<?xml version="1.0"?>
<svg width="981" height="740" xmlns="http://www.w3.org/2000/svg" xmlns:svg="http://www.w3.org/2000/svg" preserveAspectRatio="none" version="1.1">
 <g class="layer">
  <title>Layer 1</title>
  <g id="svg_1">
   <!--class Visitor-->
   <g id="elem_Visitor">
    <rect fill="#F1F1F1" height="129.48" id="Visitor" rx="2.5" ry="2.5" stroke="#181818" stroke-width="0.5" width="404.24" x="7" y="154.75"/>
    <ellipse cx="182.64" cy="170.75" fill="#ADD1B2" id="svg_2" rx="11" ry="11" stroke="#181818"/>
    <path d="m185.61,176.39q-0.58,0.3 -1.22,0.44q-0.64,0.15 -1.34,0.15q-2.5,0 -3.83,-1.64q-1.32,-1.65 -1.32,-4.78q0,-3.12 1.32,-4.78q1.33,-1.65 3.83,-1.65q0.7,0 1.34,0.15q0.66,0.16 1.22,0.45l0,2.72q-0.63,-0.57 -1.22,-0.84q-0.59,-0.28 -1.22,-0.28q-1.34,0 -2.03,1.08q-0.69,1.06 -0.69,3.15q0,2.1 0.69,3.17q0.69,1.07 2.03,1.07q0.63,0 1.22,-0.27q0.59,-0.28 1.22,-0.86l0,2.72z" fill="#000000" id="svg_3"/>
    <text fill="#000000" font-family="sans-serif" font-size="14" id="svg_4" lengthAdjust="spacing" textLength="44.46" x="203.14" y="175.6">Visitor</text>
    <line id="svg_5" stroke="#181818" stroke-width="0.5" x1="8" x2="410.24" y1="186.75" y2="186.75"/>
    <rect fill="none" height="6" id="svg_6" stroke="#C82930" width="6" x="15" y="197.4"/>
    <text fill="#000000" font-family="sans-serif" font-size="14" id="svg_7" lengthAdjust="spacing" textLength="90.65" x="27" y="203.75">name: String</text>
    <rect fill="none" height="6" id="svg_8" stroke="#C82930" width="6" x="15" y="213.7"/>
    <text fill="#000000" font-family="sans-serif" font-size="14" id="svg_9" lengthAdjust="spacing" textLength="154.67" x="27" y="220.04">mobileNumber: String</text>
    <line id="svg_10" stroke="#181818" stroke-width="0.5" x1="8" x2="410.24" y1="227.34" y2="227.34"/>
    <ellipse cx="18" cy="240.99" fill="#84BE84" id="svg_11" rx="3" ry="3" stroke="#038048"/>
    <text fill="#000000" font-family="sans-serif" font-size="14" id="svg_12" lengthAdjust="spacing" textLength="310.45" x="27" y="244.34">searchReserveRecord(): List&lt;Performance&gt;</text>
    <ellipse cx="18" cy="257.29" fill="#84BE84" id="svg_13" rx="3" ry="3" stroke="#038048"/>
    <text fill="#000000" font-family="sans-serif" font-size="14" id="svg_14" lengthAdjust="spacing" textLength="378.24" x="27" y="260.64">reserve(session: Session, seats: List&lt;Seat&gt;): boolean</text>
    <ellipse cx="18" cy="273.59" fill="#84BE84" id="svg_15" rx="3" ry="3" stroke="#038048"/>
    <text fill="#000000" font-family="sans-serif" font-size="14" id="svg_16" lengthAdjust="spacing" textLength="343.23" x="27" y="276.93">cancel(reservation: ReservationRecord): boolean</text>
   </g>
   <!--class Administrator-->
   <g id="elem_Administrator">
    <rect fill="#F1F1F1" height="178.38" id="Administrator" rx="2.5" ry="2.5" stroke="#181818" stroke-width="0.5" width="528.5" x="445.87" y="130.3"/>
    <ellipse cx="658.03" cy="146.3" fill="#ADD1B2" id="svg_17" rx="11" ry="11" stroke="#181818"/>
    <path d="m661,151.94q-0.58,0.3 -1.22,0.44q-0.64,0.15 -1.34,0.15q-2.5,0 -3.83,-1.64q-1.31,-1.65 -1.31,-4.78q0,-3.12 1.31,-4.78q1.33,-1.66 3.83,-1.66q0.7,0 1.34,0.16q0.66,0.16 1.22,0.45l0,2.72q-0.63,-0.58 -1.22,-0.84q-0.59,-0.28 -1.22,-0.28q-1.34,0 -2.03,1.08q-0.69,1.06 -0.69,3.15q0,2.1 0.69,3.17q0.69,1.07 2.03,1.07q0.63,0 1.22,-0.27q0.59,-0.28 1.22,-0.86l0,2.72z" fill="#000000" id="svg_18"/>
    <text fill="#000000" font-family="sans-serif" font-size="14" id="svg_19" lengthAdjust="spacing" textLength="95.68" x="678.53" y="151.15">Administrator</text>
    <line id="svg_20" stroke="#181818" stroke-width="0.5" x1="446.87" x2="973.37" y1="162.3" y2="162.3"/>
    <rect fill="none" height="6" id="svg_21" stroke="#C82930" width="6" x="453.87" y="172.95"/>
    <text fill="#000000" font-family="sans-serif" font-size="14" id="svg_22" lengthAdjust="spacing" textLength="121.19" x="465.87" y="179.3">username: String</text>
    <rect fill="none" height="6" id="svg_23" stroke="#C82930" width="6" x="453.87" y="189.25"/>
    <text fill="#000000" font-family="sans-serif" font-size="14" id="svg_24" lengthAdjust="spacing" textLength="117.66" x="465.87" y="195.59">password: String</text>
    <line id="svg_25" stroke="#181818" stroke-width="0.5" x1="446.87" x2="973.37" y1="202.89" y2="202.89"/>
    <ellipse cx="456.87" cy="216.54" fill="#84BE84" id="svg_26" rx="3" ry="3" stroke="#038048"/>
    <text fill="#000000" font-family="sans-serif" font-size="14" id="svg_27" lengthAdjust="spacing" textLength="478.71" x="465.87" y="219.89">releasePerformance(name: String, description: String): Performance</text>
    <ellipse cx="456.87" cy="232.84" fill="#84BE84" id="svg_28" rx="3" ry="3" stroke="#038048"/>
    <text fill="#000000" font-family="sans-serif" font-size="14" id="svg_29" lengthAdjust="spacing" textLength="403.39" x="465.87" y="236.19">updatePerformance(performance: Performance): boolean</text>
    <ellipse cx="456.87" cy="249.14" fill="#84BE84" id="svg_30" rx="3" ry="3" stroke="#038048"/>
    <text fill="#000000" font-family="sans-serif" font-size="14" id="svg_31" lengthAdjust="spacing" textLength="288.63" x="465.87" y="252.48">createSession(session: Session): boolean</text>
    <ellipse cx="456.87" cy="265.43" fill="#84BE84" id="svg_32" rx="3" ry="3" stroke="#038048"/>
    <text fill="#000000" font-family="sans-serif" font-size="14" id="svg_33" lengthAdjust="spacing" textLength="293.21" x="465.87" y="268.78">updateSession(session: Session): boolean</text>
    <ellipse cx="456.87" cy="281.73" fill="#84BE84" id="svg_34" rx="3" ry="3" stroke="#038048"/>
    <text fill="#000000" font-family="sans-serif" font-size="14" id="svg_35" lengthAdjust="spacing" textLength="289.24" x="465.87" y="285.08">cancelSession(session: Session): boolean</text>
    <ellipse cx="456.87" cy="298.03" fill="#84BE84" id="svg_36" rx="3" ry="3" stroke="#038048"/>
    <text fill="#000000" font-family="sans-serif" font-size="14" id="svg_37" lengthAdjust="spacing" textLength="502.5" x="465.87" y="301.37">viewRecord(startDate: Date, endDate: Date): List&lt;ReservationRecord&gt;</text>
   </g>
   <!--class Performance-->
   <g id="elem_Performance">
    <rect fill="#F1F1F1" height="80.59" id="Performance" rx="2.5" ry="2.5" stroke="#181818" stroke-width="0.5" width="154.79" x="66.73" y="417.57"/>
    <ellipse cx="96.73" cy="433.57" fill="#ADD1B2" id="svg_38" rx="11" ry="11" stroke="#181818"/>
    <path d="m99.7,439.21q-0.58,0.3 -1.22,0.44q-0.64,0.15 -1.35,0.15q-2.5,0 -3.82,-1.64q-1.32,-1.65 -1.32,-4.78q0,-3.12 1.32,-4.78q1.32,-1.66 3.82,-1.66q0.71,0 1.35,0.16q0.65,0.16 1.22,0.45l0,2.72q-0.63,-0.58 -1.22,-0.84q-0.6,-0.28 -1.22,-0.28q-1.35,0 -2.03,1.08q-0.69,1.06 -0.69,3.15q0,2.1 0.69,3.17q0.68,1.07 2.03,1.07q0.62,0 1.22,-0.27q0.59,-0.28 1.22,-0.86l0,2.72z" fill="#000000" id="svg_39"/>
    <text fill="#000000" font-family="sans-serif" font-size="14" id="svg_40" lengthAdjust="spacing" textLength="89.46" x="114.06" y="438.42">Performance</text>
    <line id="svg_41" stroke="#181818" stroke-width="0.5" x1="67.73" x2="220.52" y1="449.57" y2="449.57"/>
    <rect fill="none" height="6" id="svg_42" stroke="#C82930" width="6" x="74.73" y="460.22"/>
    <text fill="#000000" font-family="sans-serif" font-size="14" id="svg_43" lengthAdjust="spacing" textLength="90.65" x="86.73" y="466.57">name: String</text>
    <rect fill="none" height="6" id="svg_44" stroke="#C82930" width="6" x="74.73" y="476.52"/>
    <text fill="#000000" font-family="sans-serif" font-size="14" id="svg_45" lengthAdjust="spacing" textLength="128.79" x="86.73" y="482.86">description: String</text>
    <line id="svg_46" stroke="#181818" stroke-width="0.5" x1="67.73" x2="220.52" y1="490.16" y2="490.16"/>
   </g>
   <!--class Session-->
   <g id="elem_Session">
    <rect fill="#F1F1F1" height="129.48" id="Session" rx="2.5" ry="2.5" stroke="#181818" stroke-width="0.5" width="214.54" x="101.85" y="607.05"/>
    <ellipse cx="178.16" cy="623.05" fill="#ADD1B2" id="svg_47" rx="11" ry="11" stroke="#181818"/>
    <path d="m181.13,628.69q-0.58,0.3 -1.22,0.44q-0.64,0.15 -1.34,0.15q-2.5,0 -3.83,-1.64q-1.31,-1.65 -1.31,-4.78q0,-3.12 1.31,-4.78q1.33,-1.65 3.83,-1.65q0.7,0 1.34,0.15q0.66,0.16 1.22,0.45l0,2.72q-0.63,-0.57 -1.22,-0.84q-0.59,-0.28 -1.22,-0.28q-1.34,0 -2.03,1.08q-0.69,1.06 -0.69,3.15q0,2.1 0.69,3.17q0.69,1.07 2.03,1.07q0.63,0 1.22,-0.27q0.59,-0.28 1.22,-0.86l0,2.72z" fill="#000000" id="svg_48"/>
    <text fill="#000000" font-family="sans-serif" font-size="14" id="svg_49" lengthAdjust="spacing" textLength="53.42" x="198.66" y="627.9">Session</text>
    <line id="svg_50" stroke="#181818" stroke-width="0.5" x1="102.85" x2="315.39" y1="639.05" y2="639.05"/>
    <rect fill="none" height="6" id="svg_51" stroke="#C82930" width="6" x="109.85" y="649.7"/>
    <text fill="#000000" font-family="sans-serif" font-size="14" id="svg_52" lengthAdjust="spacing" textLength="188.54" x="121.85" y="656.05">performance: Performance</text>
    <rect fill="none" height="6" id="svg_53" stroke="#C82930" width="6" x="109.85" y="666"/>
    <text fill="#000000" font-family="sans-serif" font-size="14" id="svg_54" lengthAdjust="spacing" textLength="75.49" x="121.85" y="672.34">time: Time</text>
    <rect fill="none" height="6" id="svg_55" stroke="#C82930" width="6" x="109.85" y="682.29"/>
    <text fill="#000000" font-family="sans-serif" font-size="14" id="svg_56" lengthAdjust="spacing" textLength="74.2" x="121.85" y="688.64">date: Date</text>
    <rect fill="none" height="6" id="svg_57" stroke="#C82930" width="6" x="109.85" y="698.59"/>
    <text fill="#000000" font-family="sans-serif" font-size="14" id="svg_58" lengthAdjust="spacing" textLength="148.06" x="121.85" y="704.94">remainingTickets: int</text>
    <rect fill="none" height="6" id="svg_59" stroke="#C82930" width="6" x="109.85" y="714.89"/>
    <text fill="#000000" font-family="sans-serif" font-size="14" id="svg_60" lengthAdjust="spacing" textLength="125.94" x="121.85" y="721.23">seats: List&lt;Seat&gt;</text>
    <line id="svg_61" stroke="#181818" stroke-width="0.5" x1="102.85" x2="315.39" y1="728.53" y2="728.53"/>
   </g>
   <!--class Seat-->
   <g id="elem_Seat">
    <rect fill="#F1F1F1" height="80.59" id="Seat" rx="2.5" ry="2.5" stroke="#181818" stroke-width="0.5" width="163.16" x="381.54" y="637.54"/>
    <ellipse cx="443.09" cy="653.54" fill="#ADD1B2" id="svg_62" rx="11" ry="11" stroke="#181818"/>
    <path d="m446.06,659.18q-0.58,0.3 -1.22,0.44q-0.64,0.15 -1.35,0.15q-2.5,0 -3.82,-1.64q-1.32,-1.65 -1.32,-4.78q0,-3.12 1.32,-4.78q1.32,-1.65 3.82,-1.65q0.71,0 1.35,0.15q0.65,0.16 1.22,0.45l0,2.72q-0.63,-0.57 -1.22,-0.84q-0.6,-0.28 -1.22,-0.28q-1.35,0 -2.03,1.08q-0.69,1.06 -0.69,3.15q0,2.1 0.69,3.17q0.68,1.07 2.03,1.07q0.62,0 1.22,-0.27q0.59,-0.28 1.22,-0.86l0,2.72z" fill="#000000" id="svg_63"/>
    <text fill="#000000" font-family="sans-serif" font-size="14" id="svg_64" lengthAdjust="spacing" textLength="31.57" x="463.59" y="658.39">Seat</text>
    <line id="svg_65" stroke="#181818" stroke-width="0.5" x1="382.54" x2="543.7" y1="669.54" y2="669.54"/>
    <rect fill="none" height="6" id="svg_66" stroke="#C82930" width="6" x="389.54" y="680.19"/>
    <text fill="#000000" font-family="sans-serif" font-size="14" id="svg_67" lengthAdjust="spacing" textLength="137.16" x="401.54" y="686.54">seatNumber: String</text>
    <rect fill="none" height="6" id="svg_68" stroke="#C82930" width="6" x="389.54" y="696.49"/>
    <text fill="#000000" font-family="sans-serif" font-size="14" id="svg_69" lengthAdjust="spacing" textLength="91.72" x="401.54" y="702.83">price: double</text>
    <line id="svg_70" stroke="#181818" stroke-width="0.5" x1="382.54" x2="543.7" y1="710.13" y2="710.13"/>
   </g>
   <!--class ReservationRecord-->
   <g id="elem_ReservationRecord">
    <rect fill="#F1F1F1" height="178.38" id="ReservationRecord" rx="2.5" ry="2.5" stroke="#181818" stroke-width="0.5" width="214.54" x="464.85" y="368.68"/>
    <ellipse cx="502.17" cy="384.68" fill="#ADD1B2" id="svg_71" rx="11" ry="11" stroke="#181818"/>
    <path d="m505.14,390.32q-0.58,0.3 -1.22,0.44q-0.64,0.15 -1.34,0.15q-2.5,0 -3.83,-1.64q-1.31,-1.65 -1.31,-4.78q0,-3.12 1.31,-4.78q1.33,-1.65 3.83,-1.65q0.7,0 1.34,0.15q0.66,0.16 1.22,0.45l0,2.72q-0.62,-0.57 -1.22,-0.84q-0.59,-0.28 -1.22,-0.28q-1.34,0 -2.03,1.08q-0.69,1.06 -0.69,3.15q0,2.1 0.69,3.17q0.69,1.07 2.03,1.07q0.63,0 1.22,-0.27q0.6,-0.28 1.22,-0.86l0,2.72z" fill="#000000" id="svg_72"/>
    <text fill="#000000" font-family="sans-serif" font-size="14" id="svg_73" lengthAdjust="spacing" textLength="132.93" x="521.13" y="389.53">ReservationRecord</text>
    <line id="svg_74" stroke="#181818" stroke-width="0.5" x1="465.85" x2="678.39" y1="400.68" y2="400.68"/>
    <rect fill="none" height="6" id="svg_75" stroke="#C82930" width="6" x="472.85" y="411.33"/>
    <text fill="#000000" font-family="sans-serif" font-size="14" id="svg_76" lengthAdjust="spacing" textLength="188.54" x="484.85" y="417.68">performance: Performance</text>
    <rect fill="none" height="6" id="svg_77" stroke="#C82930" width="6" x="472.85" y="427.63"/>
    <text fill="#000000" font-family="sans-serif" font-size="14" id="svg_78" lengthAdjust="spacing" textLength="75.49" x="484.85" y="433.97">time: Time</text>
    <rect fill="none" height="6" id="svg_79" stroke="#C82930" width="6" x="472.85" y="443.92"/>
    <text fill="#000000" font-family="sans-serif" font-size="14" id="svg_80" lengthAdjust="spacing" textLength="74.2" x="484.85" y="450.27">date: Date</text>
    <rect fill="none" height="6" id="svg_81" stroke="#C82930" width="6" x="472.85" y="460.22"/>
    <text fill="#000000" font-family="sans-serif" font-size="14" id="svg_82" lengthAdjust="spacing" textLength="125.94" x="484.85" y="466.57">seats: List&lt;Seat&gt;</text>
    <rect fill="none" height="6" id="svg_83" stroke="#C82930" width="6" x="472.85" y="476.52"/>
    <text fill="#000000" font-family="sans-serif" font-size="14" id="svg_84" lengthAdjust="spacing" textLength="96.8" x="484.85" y="482.86">visitor: Visitor</text>
    <rect fill="none" height="6" id="svg_85" stroke="#C82930" width="6" x="472.85" y="492.81"/>
    <text fill="#000000" font-family="sans-serif" font-size="14" id="svg_86" lengthAdjust="spacing" textLength="143.91" x="484.85" y="499.16">totalAmount: double</text>
    <rect fill="none" height="6" id="svg_87" stroke="#C82930" width="6" x="472.85" y="509.11"/>
    <text fill="#000000" font-family="sans-serif" font-size="14" id="svg_88" lengthAdjust="spacing" textLength="147.65" x="484.85" y="515.46">numberOfTickets: int</text>
    <rect fill="none" height="6" id="svg_89" stroke="#C82930" width="6" x="472.85" y="525.41"/>
    <text fill="#000000" font-family="sans-serif" font-size="14" id="svg_90" lengthAdjust="spacing" textLength="93.97" x="484.85" y="531.75">status: String</text>
    <line id="svg_91" stroke="#181818" stroke-width="0.5" x1="465.85" x2="678.39" y1="539.05" y2="539.05"/>
   </g>
   <!--class PerformSystem-->
   <g id="elem_PerformSystem">
    <rect fill="#F1F1F1" height="64.3" id="PerformSystem" rx="2.5" ry="2.5" stroke="#181818" stroke-width="0.5" width="383.92" x="267.16" y="6"/>
    <ellipse cx="400.92" cy="22" fill="#ADD1B2" id="svg_92" rx="11" ry="11" stroke="#181818"/>
    <path d="m403.88,27.64q-0.57,0.3 -1.21,0.44q-0.65,0.15 -1.35,0.15q-2.5,0 -3.83,-1.64q-1.31,-1.65 -1.31,-4.78q0,-3.12 1.31,-4.78q1.33,-1.65 3.83,-1.65q0.7,0 1.35,0.15q0.65,0.16 1.21,0.45l0,2.72q-0.62,-0.57 -1.21,-0.84q-0.6,-0.28 -1.22,-0.28q-1.35,0 -2.03,1.08q-0.69,1.06 -0.69,3.15q0,2.1 0.69,3.17q0.68,1.07 2.03,1.07q0.62,0 1.22,-0.27q0.59,-0.28 1.21,-0.86l0,2.72z" fill="#000000" id="svg_93"/>
    <text fill="#000000" font-family="sans-serif" font-size="14" id="svg_94" lengthAdjust="spacing" textLength="107.91" x="421.42" y="26.85">PerformSystem</text>
    <line id="svg_95" stroke="#181818" stroke-width="0.5" x1="268.16" x2="650.08" y1="38" y2="38"/>
    <line id="svg_96" stroke="#181818" stroke-width="0.5" x1="268.16" x2="650.08" y1="46" y2="46"/>
    <ellipse cx="278.16" cy="59.65" fill="#84BE84" id="svg_97" rx="3" ry="3" stroke="#038048"/>
    <text fill="#000000" font-family="sans-serif" font-size="14" id="svg_98" lengthAdjust="spacing" textLength="357.92" x="287.16" y="63">login(username: String, password: String): boolean</text>
   </g>
   <!--link Visitor to ReservationRecord-->
   <g id="link_Visitor_ReservationRecord">
    <path d="m307.35,284.46c48.61,31.65 102.36,66.65 152.18,99.09" fill="none" id="Visitor-to-ReservationRecord" stroke="#181818"/>
    <polygon fill="#181818" id="svg_99" points="464.55999755859375,386.82000732421875 459.2005920410156,378.5570068359375 460.3699951171875,384.0917053222656 454.8352966308594,385.2611083984375 464.55999755859375,386.82000732421875 " stroke="#181818"/>
   </g>
   <!--link Administrator to ReservationRecord-->
   <g id="link_Administrator_ReservationRecord">
    <path d="m658.54,308.84c-11.33,19.41 -20.3,34.79 -31.64,54.2" fill="none" id="Administrator-to-ReservationRecord" stroke="#181818"/>
    <polygon fill="#181818" id="svg_100" points="623.8699951171875,368.2200012207031 631.86376953125,362.466796875 626.3922729492188,363.9028015136719 624.956298828125,358.43121337890625 623.8699951171875,368.2200012207031 " stroke="#181818"/>
   </g>
   <!--link Performance to Session-->
   <g id="link_Performance_Session">
    <path d="m156.19,498.23c9.33,30.4 20.67,67.37 31.5,102.69" fill="none" id="Performance-to-Session" stroke="#181818"/>
    <polygon fill="#181818" id="svg_101" points="189.4499969482422,606.6599731445312 190.63589477539062,596.8828125 187.9842071533203,601.8796997070312 182.98739624023438,599.22802734375 189.4499969482422,606.6599731445312 " stroke="#181818"/>
   </g>
   <!--link Session to Seat-->
   <g id="link_Session_Seat">
    <path d="m372.12,622.76c0,20.17 0,35.83 0,53.74" fill="none" id="Session-to-Seat" stroke="#181818" transform="rotate(-90 372 678)"/>
    <polygon fill="#181818" id="svg_102" points="372.1199951171875,682.5 376.1199951171875,673.5 372.1199951171875,677.5 368.1199951171875,673.5 372.1199951171875,682.5 " stroke="#181818" transform="rotate(-90 372 678)"/>
   </g>
   <!--link Visitor to Performance-->
   <g id="link_Visitor_Performance">
    <path d="m191.53,284.46c-11.66,42.38 -24.99,90.85 -34.95,127.07" fill="none" id="Visitor-to-Performance" stroke="#181818"/>
    <polygon fill="#181818" id="svg_103" points="154.99000549316406,417.32000732421875 161.23309326171875,409.70269775390625 156.31570434570312,412.4989929199219 153.51950073242188,407.5815124511719 154.99000549316406,417.32000732421875 " stroke="#181818"/>
   </g>
   <!--link Visitor to Session-->
   <g id="link_Visitor_Session">
    <path d="m225.01,284.62c5.66,25.92 11.32,56.24 14.11,84.06c7.9,78.88 9.41,99.65 0,178.37c-2.35,19.65 -5.28,34.85 -9.98,53.9" fill="none" id="Visitor-to-Session" stroke="#181818"/>
    <polygon fill="#181818" id="svg_104" points="227.6999969482422,606.780029296875 233.73939514160156,599.0001831054688 228.897705078125,601.9255981445312 225.97230529785156,597.0839233398438 227.6999969482422,606.780029296875 " stroke="#181818"/>
   </g>
   <!--link PerformSystem to Visitor-->
   <g id="link_PerformSystem_Visitor">
    <path d="m415.29,70.6c-32.21,23.1 -72.21,51.79 -111.87,80.24" fill="none" id="PerformSystem-to-Visitor" stroke="#181818"/>
    <polygon fill="#181818" id="svg_105" points="298.5400085449219,154.33999633789062 308.18450927734375,152.34429931640625 302.6028137207031,151.42559814453125 303.5215148925781,145.8437957763672 298.5400085449219,154.33999633789062 " stroke="#181818"/>
   </g>
   <!--link PerformSystem to Administrator-->
   <g id="link_PerformSystem_Administrator">
    <path d="m503.13,70.6c23.27,16.62 48.24,34.46 77.99,55.72" fill="none" id="PerformSystem-to-Administrator" stroke="#181818"/>
    <polygon fill="#181818" id="svg_106" points="586,129.80999755859375 581.003173828125,121.32279968261719 581.9320068359375,126.90290069580078 576.3519287109375,127.83160400390625 586,129.80999755859375 " stroke="#181818"/>
   </g>
   <!--SRC=[hLH1RiCW4Bpx5HnT9Vc0LLcAr6FLLadKEyQR5DM01Uj4LTM_5mBOEBXL3_N1milEC3licdNK6FBA3KUboMT1xBCXaWgeo1urbwSG4ghX7JmDeW4zsreH0rIpjnqOq6VO0LEwBUygyiWDth-0FYejg6HGXtJj4qi3nd0bBPbVh1qHcW3SstLjMHgbEg0oO9aZwafFGV4AtqqV_l04zLKKx5hXjXLSMbvDqpe7YroejRU8YoMwgLE3vJIGb5Icu3LfmJ3DUo_B1wsM93yG3NrBSSRJJ-iP83T0MryWE9PPcANxa_wSxktzS_gPmoNSjq6gyS6ULH7tNXEGxVGPko6xgdgweQJgt_fmmUE98mWTyJ_P6hQHE_g3VKVoKN48Q13Kzeqy7JXx1zUSN6BOoxerrK5n5E7o5kR6gjFSwMhLq7GmWJEJ_g-SNBAFd_tyL_5740aLqcuhr21nb1akvbhFyt795gGucFnkWjxzXq4GeQGLwTI9o_9s3jVP2CvdElwlDfkQv7uLys5tINbEscuk8xHE4Ll8noZEpaezJ-CHFA_HxKH3yvsPo6y0]-->
  </g>
 </g>
</svg>