<svg xmlns="http://www.w3.org/2000/svg" xmlns:xlink="http://www.w3.org/1999/xlink" contentStyleType="text/css" height="695px" preserveAspectRatio="none" style="width:981px;height:695px;background:#FFFFFF;" version="1.1" viewBox="0 0 981 695" width="981px" zoomAndPan="magnify"><defs/><g><!--class Visitor--><g id="elem_Visitor"><rect codeLine="1" fill="#F1F1F1" height="129.4844" id="Visitor" rx="2.5" ry="2.5" style="stroke:#181818;stroke-width:0.5;" width="404.2393" x="7" y="155.74"/><ellipse cx="182.6392" cy="171.74" fill="#ADD1B2" rx="11" ry="11" style="stroke:#181818;stroke-width:1.0;"/><path d="M185.6079,177.3806 Q185.0298,177.6775 184.3892,177.8181 Q183.7485,177.9744 183.0454,177.9744 Q180.5454,177.9744 179.2173,176.3338 Q177.9048,174.6775 177.9048,171.5525 Q177.9048,168.4275 179.2173,166.7713 Q180.5454,165.115 183.0454,165.115 Q183.7485,165.115 184.3892,165.2713 Q185.0454,165.4275 185.6079,165.7244 L185.6079,168.4431 Q184.9829,167.865 184.3892,167.5994 Q183.7954,167.3181 183.1704,167.3181 Q181.8267,167.3181 181.1392,168.3963 Q180.4517,169.4588 180.4517,171.5525 Q180.4517,173.6463 181.1392,174.7244 Q181.8267,175.7869 183.1704,175.7869 Q183.7954,175.7869 184.3892,175.5213 Q184.9829,175.24 185.6079,174.6619 L185.6079,177.3806 Z " fill="#000000"/><text fill="#000000" font-family="sans-serif" font-size="14" lengthAdjust="spacing" textLength="44.4609" x="203.1392" y="176.5867">Visitor</text><line style="stroke:#181818;stroke-width:0.5;" x1="8" x2="410.2393" y1="187.74" y2="187.74"/><rect fill="none" height="6" style="stroke:#C82930;stroke-width:1.0;" width="6" x="15" y="198.3884"/><text fill="#000000" font-family="sans-serif" font-size="14" lengthAdjust="spacing" textLength="90.6514" x="27" y="204.7351">name: String</text><rect fill="none" height="6" style="stroke:#C82930;stroke-width:1.0;" width="6" x="15" y="214.6853"/><text fill="#000000" font-family="sans-serif" font-size="14" lengthAdjust="spacing" textLength="154.6699" x="27" y="221.032">mobileNumber: String</text><line style="stroke:#181818;stroke-width:0.5;" x1="8" x2="410.2393" y1="228.3338" y2="228.3338"/><ellipse cx="18" cy="241.9822" fill="#84BE84" rx="3" ry="3" style="stroke:#038048;stroke-width:1.0;"/><text fill="#000000" font-family="sans-serif" font-size="14" lengthAdjust="spacing" textLength="310.4473" x="27" y="245.3289">searchReserveRecord(): List&lt;Performance&gt;</text><ellipse cx="18" cy="258.2791" fill="#84BE84" rx="3" ry="3" style="stroke:#038048;stroke-width:1.0;"/><text fill="#000000" font-family="sans-serif" font-size="14" lengthAdjust="spacing" textLength="378.2393" x="27" y="261.6257">reserve(session: Session, seats: List&lt;Seat&gt;): boolean</text><ellipse cx="18" cy="274.5759" fill="#84BE84" rx="3" ry="3" style="stroke:#038048;stroke-width:1.0;"/><text fill="#000000" font-family="sans-serif" font-size="14" lengthAdjust="spacing" textLength="343.2256" x="27" y="277.9226">cancel(reservation: ReservationRecord): boolean</text></g><!--class Administrator--><g id="elem_Administrator"><rect codeLine="9" fill="#F1F1F1" height="178.375" id="Administrator" rx="2.5" ry="2.5" style="stroke:#181818;stroke-width:0.5;" width="528.5029" x="445.87" y="131.3"/><ellipse cx="658.0302" cy="147.3" fill="#ADD1B2" rx="11" ry="11" style="stroke:#181818;stroke-width:1.0;"/><path d="M660.9989,152.9406 Q660.4208,153.2375 659.7802,153.3781 Q659.1395,153.5344 658.4364,153.5344 Q655.9364,153.5344 654.6083,151.8937 Q653.2958,150.2375 653.2958,147.1125 Q653.2958,143.9875 654.6083,142.3312 Q655.9364,140.675 658.4364,140.675 Q659.1395,140.675 659.7802,140.8312 Q660.4364,140.9875 660.9989,141.2844 L660.9989,144.0031 Q660.3739,143.425 659.7802,143.1594 Q659.1864,142.8781 658.5614,142.8781 Q657.2177,142.8781 656.5302,143.9562 Q655.8427,145.0187 655.8427,147.1125 Q655.8427,149.2062 656.5302,150.2844 Q657.2177,151.3469 658.5614,151.3469 Q659.1864,151.3469 659.7802,151.0812 Q660.3739,150.8 660.9989,150.2219 L660.9989,152.9406 Z " fill="#000000"/><text fill="#000000" font-family="sans-serif" font-size="14" lengthAdjust="spacing" textLength="95.6826" x="678.5302" y="152.1467">Administrator</text><line style="stroke:#181818;stroke-width:0.5;" x1="446.87" x2="973.3729" y1="163.3" y2="163.3"/><rect fill="none" height="6" style="stroke:#C82930;stroke-width:1.0;" width="6" x="453.87" y="173.9484"/><text fill="#000000" font-family="sans-serif" font-size="14" lengthAdjust="spacing" textLength="121.1875" x="465.87" y="180.2951">username: String</text><rect fill="none" height="6" style="stroke:#C82930;stroke-width:1.0;" width="6" x="453.87" y="190.2453"/><text fill="#000000" font-family="sans-serif" font-size="14" lengthAdjust="spacing" textLength="117.6602" x="465.87" y="196.592">password: String</text><line style="stroke:#181818;stroke-width:0.5;" x1="446.87" x2="973.3729" y1="203.8937" y2="203.8937"/><ellipse cx="456.87" cy="217.5422" fill="#84BE84" rx="3" ry="3" style="stroke:#038048;stroke-width:1.0;"/><text fill="#000000" font-family="sans-serif" font-size="14" lengthAdjust="spacing" textLength="478.7139" x="465.87" y="220.8889">releasePerformance(name: String, description: String): Performance</text><ellipse cx="456.87" cy="233.8391" fill="#84BE84" rx="3" ry="3" style="stroke:#038048;stroke-width:1.0;"/><text fill="#000000" font-family="sans-serif" font-size="14" lengthAdjust="spacing" textLength="403.3887" x="465.87" y="237.1857">updatePerformance(performance: Performance): boolean</text><ellipse cx="456.87" cy="250.1359" fill="#84BE84" rx="3" ry="3" style="stroke:#038048;stroke-width:1.0;"/><text fill="#000000" font-family="sans-serif" font-size="14" lengthAdjust="spacing" textLength="288.6338" x="465.87" y="253.4826">createSession(session: Session): boolean</text><ellipse cx="456.87" cy="266.4328" fill="#84BE84" rx="3" ry="3" style="stroke:#038048;stroke-width:1.0;"/><text fill="#000000" font-family="sans-serif" font-size="14" lengthAdjust="spacing" textLength="293.2139" x="465.87" y="269.7795">updateSession(session: Session): boolean</text><ellipse cx="456.87" cy="282.7297" fill="#84BE84" rx="3" ry="3" style="stroke:#038048;stroke-width:1.0;"/><text fill="#000000" font-family="sans-serif" font-size="14" lengthAdjust="spacing" textLength="289.2354" x="465.87" y="286.0764">cancelSession(session: Session): boolean</text><ellipse cx="456.87" cy="299.0266" fill="#84BE84" rx="3" ry="3" style="stroke:#038048;stroke-width:1.0;"/><text fill="#000000" font-family="sans-serif" font-size="14" lengthAdjust="spacing" textLength="502.5029" x="465.87" y="302.3732">viewRecord(startDate: Date, endDate: Date): List&lt;ReservationRecord&gt;</text></g><!--class Performance--><g id="elem_Performance"><rect codeLine="20" fill="#F1F1F1" height="80.5938" id="Performance" rx="2.5" ry="2.5" style="stroke:#181818;stroke-width:0.5;" width="154.7891" x="51.73" y="608.05"/><ellipse cx="81.7272" cy="624.05" fill="#ADD1B2" rx="11" ry="11" style="stroke:#181818;stroke-width:1.0;"/><path d="M84.696,629.6906 Q84.1178,629.9875 83.4772,630.1281 Q82.8366,630.2844 82.1335,630.2844 Q79.6335,630.2844 78.3053,628.6438 Q76.9928,626.9875 76.9928,623.8625 Q76.9928,620.7375 78.3053,619.0813 Q79.6335,617.425 82.1335,617.425 Q82.8366,617.425 83.4772,617.5813 Q84.1335,617.7375 84.696,618.0344 L84.696,620.7531 Q84.071,620.175 83.4772,619.9094 Q82.8835,619.6281 82.2585,619.6281 Q80.9147,619.6281 80.2272,620.7063 Q79.5397,621.7688 79.5397,623.8625 Q79.5397,625.9563 80.2272,627.0344 Q80.9147,628.0969 82.2585,628.0969 Q82.8835,628.0969 83.4772,627.8313 Q84.071,627.55 84.696,626.9719 L84.696,629.6906 Z " fill="#000000"/><text fill="#000000" font-family="sans-serif" font-size="14" lengthAdjust="spacing" textLength="89.4619" x="99.0599" y="628.8967">Performance</text><line style="stroke:#181818;stroke-width:0.5;" x1="52.73" x2="205.5191" y1="640.05" y2="640.05"/><rect fill="none" height="6" style="stroke:#C82930;stroke-width:1.0;" width="6" x="59.73" y="650.6984"/><text fill="#000000" font-family="sans-serif" font-size="14" lengthAdjust="spacing" textLength="90.6514" x="71.73" y="657.0451">name: String</text><rect fill="none" height="6" style="stroke:#C82930;stroke-width:1.0;" width="6" x="59.73" y="666.9953"/><text fill="#000000" font-family="sans-serif" font-size="14" lengthAdjust="spacing" textLength="128.7891" x="71.73" y="673.342">description: String</text><line style="stroke:#181818;stroke-width:0.5;" x1="52.73" x2="205.5191" y1="680.6438" y2="680.6438"/></g><!--class Session--><g id="elem_Session"><rect codeLine="25" fill="#F1F1F1" height="129.4844" id="Session" rx="2.5" ry="2.5" style="stroke:#181818;stroke-width:0.5;" width="214.5352" x="181.85" y="394.12"/><ellipse cx="258.1596" cy="410.12" fill="#ADD1B2" rx="11" ry="11" style="stroke:#181818;stroke-width:1.0;"/><path d="M261.1283,415.7606 Q260.5502,416.0575 259.9096,416.1981 Q259.2689,416.3544 258.5658,416.3544 Q256.0658,416.3544 254.7377,414.7138 Q253.4252,413.0575 253.4252,409.9325 Q253.4252,406.8075 254.7377,405.1513 Q256.0658,403.495 258.5658,403.495 Q259.2689,403.495 259.9096,403.6513 Q260.5658,403.8075 261.1283,404.1044 L261.1283,406.8231 Q260.5033,406.245 259.9096,405.9794 Q259.3158,405.6981 258.6908,405.6981 Q257.3471,405.6981 256.6596,406.7763 Q255.9721,407.8388 255.9721,409.9325 Q255.9721,412.0263 256.6596,413.1044 Q257.3471,414.1669 258.6908,414.1669 Q259.3158,414.1669 259.9096,413.9013 Q260.5033,413.62 261.1283,413.0419 L261.1283,415.7606 Z " fill="#000000"/><text fill="#000000" font-family="sans-serif" font-size="14" lengthAdjust="spacing" textLength="53.416" x="278.6596" y="414.9667">Session</text><line style="stroke:#181818;stroke-width:0.5;" x1="182.85" x2="395.3852" y1="426.12" y2="426.12"/><rect fill="none" height="6" style="stroke:#C82930;stroke-width:1.0;" width="6" x="189.85" y="436.7684"/><text fill="#000000" font-family="sans-serif" font-size="14" lengthAdjust="spacing" textLength="188.5352" x="201.85" y="443.1151">performance: Performance</text><rect fill="none" height="6" style="stroke:#C82930;stroke-width:1.0;" width="6" x="189.85" y="453.0653"/><text fill="#000000" font-family="sans-serif" font-size="14" lengthAdjust="spacing" textLength="75.4893" x="201.85" y="459.412">time: Time</text><rect fill="none" height="6" style="stroke:#C82930;stroke-width:1.0;" width="6" x="189.85" y="469.3622"/><text fill="#000000" font-family="sans-serif" font-size="14" lengthAdjust="spacing" textLength="74.1973" x="201.85" y="475.7089">date: Date</text><rect fill="none" height="6" style="stroke:#C82930;stroke-width:1.0;" width="6" x="189.85" y="485.6591"/><text fill="#000000" font-family="sans-serif" font-size="14" lengthAdjust="spacing" textLength="148.0596" x="201.85" y="492.0057">remainingTickets: int</text><rect fill="none" height="6" style="stroke:#C82930;stroke-width:1.0;" width="6" x="189.85" y="501.9559"/><text fill="#000000" font-family="sans-serif" font-size="14" lengthAdjust="spacing" textLength="125.9385" x="201.85" y="508.3026">seats: List&lt;Seat&gt;</text><line style="stroke:#181818;stroke-width:0.5;" x1="182.85" x2="395.3852" y1="515.6044" y2="515.6044"/></g><!--class Seat--><g id="elem_Seat"><rect codeLine="33" fill="#F1F1F1" height="80.5938" id="Seat" rx="2.5" ry="2.5" style="stroke:#181818;stroke-width:0.5;" width="163.1631" x="241.54" y="608.05"/><ellipse cx="303.0874" cy="624.05" fill="#ADD1B2" rx="11" ry="11" style="stroke:#181818;stroke-width:1.0;"/><path d="M306.0561,629.6906 Q305.478,629.9875 304.8374,630.1281 Q304.1967,630.2844 303.4936,630.2844 Q300.9936,630.2844 299.6655,628.6438 Q298.353,626.9875 298.353,623.8625 Q298.353,620.7375 299.6655,619.0813 Q300.9936,617.425 303.4936,617.425 Q304.1967,617.425 304.8374,617.5813 Q305.4936,617.7375 306.0561,618.0344 L306.0561,620.7531 Q305.4311,620.175 304.8374,619.9094 Q304.2436,619.6281 303.6186,619.6281 Q302.2749,619.6281 301.5874,620.7063 Q300.8999,621.7688 300.8999,623.8625 Q300.8999,625.9563 301.5874,627.0344 Q302.2749,628.0969 303.6186,628.0969 Q304.2436,628.0969 304.8374,627.8313 Q305.4311,627.55 306.0561,626.9719 L306.0561,629.6906 Z " fill="#000000"/><text fill="#000000" font-family="sans-serif" font-size="14" lengthAdjust="spacing" textLength="31.5684" x="323.5874" y="628.8967">Seat</text><line style="stroke:#181818;stroke-width:0.5;" x1="242.54" x2="403.7031" y1="640.05" y2="640.05"/><rect fill="none" height="6" style="stroke:#C82930;stroke-width:1.0;" width="6" x="249.54" y="650.6984"/><text fill="#000000" font-family="sans-serif" font-size="14" lengthAdjust="spacing" textLength="137.1631" x="261.54" y="657.0451">seatNumber: String</text><rect fill="none" height="6" style="stroke:#C82930;stroke-width:1.0;" width="6" x="249.54" y="666.9953"/><text fill="#000000" font-family="sans-serif" font-size="14" lengthAdjust="spacing" textLength="91.7246" x="261.54" y="673.342">price: double</text><line style="stroke:#181818;stroke-width:0.5;" x1="242.54" x2="403.7031" y1="680.6438" y2="680.6438"/></g><!--class ReservationRecord--><g id="elem_ReservationRecord"><rect codeLine="38" fill="#F1F1F1" height="178.375" id="ReservationRecord" rx="2.5" ry="2.5" style="stroke:#181818;stroke-width:0.5;" width="214.5352" x="516.85" y="369.67"/><ellipse cx="554.1716" cy="385.67" fill="#ADD1B2" rx="11" ry="11" style="stroke:#181818;stroke-width:1.0;"/><path d="M557.1403,391.3106 Q556.5622,391.6075 555.9216,391.7481 Q555.281,391.9044 554.5778,391.9044 Q552.0778,391.9044 550.7497,390.2637 Q549.4372,388.6075 549.4372,385.4825 Q549.4372,382.3575 550.7497,380.7012 Q552.0778,379.045 554.5778,379.045 Q555.281,379.045 555.9216,379.2012 Q556.5778,379.3575 557.1403,379.6544 L557.1403,382.3731 Q556.5153,381.795 555.9216,381.5294 Q555.3278,381.2481 554.7028,381.2481 Q553.3591,381.2481 552.6716,382.3262 Q551.9841,383.3887 551.9841,385.4825 Q551.9841,387.5762 552.6716,388.6544 Q553.3591,389.7169 554.7028,389.7169 Q555.3278,389.7169 555.9216,389.4512 Q556.5153,389.17 557.1403,388.5919 L557.1403,391.3106 Z " fill="#000000"/><text fill="#000000" font-family="sans-serif" font-size="14" lengthAdjust="spacing" textLength="132.9316" x="573.1319" y="390.5167">ReservationRecord</text><line style="stroke:#181818;stroke-width:0.5;" x1="517.85" x2="730.3852" y1="401.67" y2="401.67"/><rect fill="none" height="6" style="stroke:#C82930;stroke-width:1.0;" width="6" x="524.85" y="412.3184"/><text fill="#000000" font-family="sans-serif" font-size="14" lengthAdjust="spacing" textLength="188.5352" x="536.85" y="418.6651">performance: Performance</text><rect fill="none" height="6" style="stroke:#C82930;stroke-width:1.0;" width="6" x="524.85" y="428.6153"/><text fill="#000000" font-family="sans-serif" font-size="14" lengthAdjust="spacing" textLength="75.4893" x="536.85" y="434.962">time: Time</text><rect fill="none" height="6" style="stroke:#C82930;stroke-width:1.0;" width="6" x="524.85" y="444.9122"/><text fill="#000000" font-family="sans-serif" font-size="14" lengthAdjust="spacing" textLength="74.1973" x="536.85" y="451.2589">date: Date</text><rect fill="none" height="6" style="stroke:#C82930;stroke-width:1.0;" width="6" x="524.85" y="461.2091"/><text fill="#000000" font-family="sans-serif" font-size="14" lengthAdjust="spacing" textLength="125.9385" x="536.85" y="467.5557">seats: List&lt;Seat&gt;</text><rect fill="none" height="6" style="stroke:#C82930;stroke-width:1.0;" width="6" x="524.85" y="477.5059"/><text fill="#000000" font-family="sans-serif" font-size="14" lengthAdjust="spacing" textLength="96.7969" x="536.85" y="483.8526">visitor: Visitor</text><rect fill="none" height="6" style="stroke:#C82930;stroke-width:1.0;" width="6" x="524.85" y="493.8028"/><text fill="#000000" font-family="sans-serif" font-size="14" lengthAdjust="spacing" textLength="143.9102" x="536.85" y="500.1495">totalAmount: double</text><rect fill="none" height="6" style="stroke:#C82930;stroke-width:1.0;" width="6" x="524.85" y="510.0997"/><text fill="#000000" font-family="sans-serif" font-size="14" lengthAdjust="spacing" textLength="147.6494" x="536.85" y="516.4464">numberOfTickets: int</text><rect fill="none" height="6" style="stroke:#C82930;stroke-width:1.0;" width="6" x="524.85" y="526.3966"/><text fill="#000000" font-family="sans-serif" font-size="14" lengthAdjust="spacing" textLength="93.9668" x="536.85" y="532.7432">status: String</text><line style="stroke:#181818;stroke-width:0.5;" x1="517.85" x2="730.3852" y1="540.045" y2="540.045"/></g><!--class PerformSystem--><g id="elem_PerformSystem"><rect codeLine="49" fill="#F1F1F1" height="64.2969" id="PerformSystem" rx="2.5" ry="2.5" style="stroke:#181818;stroke-width:0.5;" width="383.916" x="267.16" y="7"/><ellipse cx="400.9154" cy="23" fill="#ADD1B2" rx="11" ry="11" style="stroke:#181818;stroke-width:1.0;"/><path d="M403.8841,28.6406 Q403.306,28.9375 402.6654,29.0781 Q402.0247,29.2344 401.3216,29.2344 Q398.8216,29.2344 397.4935,27.5938 Q396.181,25.9375 396.181,22.8125 Q396.181,19.6875 397.4935,18.0313 Q398.8216,16.375 401.3216,16.375 Q402.0247,16.375 402.6654,16.5313 Q403.3216,16.6875 403.8841,16.9844 L403.8841,19.7031 Q403.2591,19.125 402.6654,18.8594 Q402.0716,18.5781 401.4466,18.5781 Q400.1029,18.5781 399.4154,19.6563 Q398.7279,20.7188 398.7279,22.8125 Q398.7279,24.9063 399.4154,25.9844 Q400.1029,27.0469 401.4466,27.0469 Q402.0716,27.0469 402.6654,26.7813 Q403.2591,26.5 403.8841,25.9219 L403.8841,28.6406 Z " fill="#000000"/><text fill="#000000" font-family="sans-serif" font-size="14" lengthAdjust="spacing" textLength="107.9053" x="421.4154" y="27.8467">PerformSystem</text><line style="stroke:#181818;stroke-width:0.5;" x1="268.16" x2="650.076" y1="39" y2="39"/><line style="stroke:#181818;stroke-width:0.5;" x1="268.16" x2="650.076" y1="47" y2="47"/><ellipse cx="278.16" cy="60.6484" fill="#84BE84" rx="3" ry="3" style="stroke:#038048;stroke-width:1.0;"/><text fill="#000000" font-family="sans-serif" font-size="14" lengthAdjust="spacing" textLength="357.916" x="287.16" y="63.9951">login(username: String, password: String): boolean</text></g><!--link Visitor to ReservationRecord--><g id="link_Visitor_ReservationRecord"><path codeLine="53" d="M321.7,285.61 C382.31,320.13 451.4765,359.5203 511.3065,393.6003 " fill="none" id="Visitor-to-ReservationRecord" style="stroke:#181818;stroke-width:1.0;stroke-dasharray:7.0,7.0;"/><polygon fill="#181818" points="516.52,396.57,510.6795,388.6398,512.1754,394.0953,506.7199,395.5911,516.52,396.57" style="stroke:#181818;stroke-width:1.0;"/></g><!--link Administrator to ReservationRecord--><g id="link_Administrator_ReservationRecord"><path codeLine="54" d="M677.97,309.84 C670.91,329.24 665.48,344.1611 658.42,363.5811 " fill="none" id="Administrator-to-ReservationRecord" style="stroke:#181818;stroke-width:1.0;stroke-dasharray:7.0,7.0;"/><polygon fill="#181818" points="656.37,369.22,663.2043,362.1283,658.0783,364.5209,655.6857,359.3949,656.37,369.22" style="stroke:#181818;stroke-width:1.0;"/></g><!--link Session to Performance--><g id="link_Session_Performance"><path codeLine="55" d="M234.5,523.86 C210.79,551.65 187.6455,578.7665 166.8855,603.0865 " fill="none" id="Session-to-Performance" style="stroke:#181818;stroke-width:1.0;"/><polygon fill="#181818" points="162.99,607.65,171.8755,603.4018,166.2362,603.8471,165.7909,598.2078,162.99,607.65" style="stroke:#181818;stroke-width:1.0;"/></g><!--link Session to Seat--><g id="link_Session_Seat"><path codeLine="56" d="M300.73,523.86 C305.77,551.65 310.4395,577.4263 314.8495,601.7463 " fill="none" id="Session-to-Seat" style="stroke:#181818;stroke-width:1.0;"/><polygon fill="#181818" points="315.92,607.65,318.25,598.0807,315.0279,602.7302,310.3784,599.5081,315.92,607.65" style="stroke:#181818;stroke-width:1.0;"/></g><!--link Visitor to Performance--><g id="link_Visitor_Performance"><path codeLine="57" d="M187.11,285.42 C178.88,311.32 170.09,341.67 164.12,369.67 C146.23,453.54 136.8558,547.7697 132.4558,601.9297 " fill="none" id="Visitor-to-Performance" style="stroke:#181818;stroke-width:1.0;stroke-dasharray:7.0,7.0;"/><polygon fill="#181818" points="131.97,607.91,136.6856,599.2635,132.3749,602.9264,128.7119,598.6157,131.97,607.91" style="stroke:#181818;stroke-width:1.0;"/></g><!--link Visitor to Session--><g id="link_Visitor_Session"><path codeLine="58" d="M230.77,285.45 C242.15,319.08 254.1473,354.5164 265.5273,388.1564 " fill="none" id="Visitor-to-Session" style="stroke:#181818;stroke-width:1.0;stroke-dasharray:7.0,7.0;"/><polygon fill="#181818" points="267.45,393.84,268.355,384.0328,265.8478,389.1037,260.7769,386.5964,267.45,393.84" style="stroke:#181818;stroke-width:1.0;"/></g><!--link PerformSystem to Visitor--><g id="link_PerformSystem_Visitor"><path codeLine="59" d="M415.29,71.59 C383.08,94.7 343.0753,123.3927 303.4153,151.8427 " fill="none" id="PerformSystem-to-Visitor" style="stroke:#181818;stroke-width:1.0;"/><polygon fill="#181818" points="298.54,155.34,308.1845,153.3443,302.6028,152.4256,303.5215,146.8438,298.54,155.34" style="stroke:#181818;stroke-width:1.0;"/></g><!--link PerformSystem to Administrator--><g id="link_PerformSystem_Administrator"><path codeLine="60" d="M503.13,71.59 C526.4,88.22 551.3676,106.0626 581.1176,127.3126 " fill="none" id="PerformSystem-to-Administrator" style="stroke:#181818;stroke-width:1.0;"/><polygon fill="#181818" points="586,130.8,581.0014,122.3139,581.9313,127.8938,576.3514,128.8238,586,130.8" style="stroke:#181818;stroke-width:1.0;"/></g><!--SRC=[hLH1RiCW4Bpx5HnTnSa3hCfIf1whjagYth6zIL4DMB1EL5NzUo5W6u9RzL0VBBpi3BF3hfkEQarUcMOe5VdCY7dMH50E9TcZOkBaGrpMh8EdWTUWegqLqK1LyxO33UeCEsYaQlExaZmoZVSle8vISIeQg7owSecv1gsP58RCBGfBXDe3zsPT6PPQoWweyDZ64dMvew1uXU_c3tTuWFhAikPQuRRbJ1XUHSCw1uDSgBKtY8iXkgbJWU7K49IKX-22jA0RnNedomMDbY3V4mrzIp7YwUTr14WDKCONy8ub5YRfxgG_fpjx_vn-Pd3nzwsHAdmmPvN4lWi2efq_nsv8hggQRoYe-hS-NF1uvl129_nFjlfjP9R-ODuZ-QJO1nHmQlf6d0wiUGVRd4oWtqkwDTH1SH9XynRcngXJpEfgvL1tC8CJa_wld5IoYv_T_9VZZs0ab4YxBPU3m4cclvXhFS_79LkGug3Jk_5wznyQWVkILgIJ9oRospaiaX6CPthyNsqs5Kdzok9XjqbfpjWgwtKLMHd6hKNHMM5Y6FUWBAxHKeo6fZkHo6y0]--></g></svg>